PathFileType	4	(X/Y/Z)	Patient4_TMGait_0pt3_03_right_30.trc.trc
DataRate	CameraRate	NumFrames	NumMarkers	Units	OrigDataRate	OrigDataStartFrame	OrigNumFrames
54.901960784314	54.901960784314	4	33	mm	54.901960784314	71	       141
Frame#	Time	Sacral			L.Shoulder			Chest			R.Shoulder			Neck			R.ASIS			L.ASIS			R.Thigh.Superior			R.Thigh.Lateral			R.Thigh.Inferior			R.Patella			L.Thigh.Superior			L.Thigh.Lateral			L.Thigh.Inferior			L.Patella			L.Shank.Superior			L.Shank.Lateral			L.Shank.Inferior			R.Shank.Superior			R.Shank.Lateral			R.Shank.Inferior			R.Heel			R.Midfoot.Superior			R.Midfoot.Lateral			R.Toe			L.Heel			L.Midfoot.Lateral			L.Midfoot.Superior			L.Toe			L.Elbow			L.Wrist			R.Elbow			R.Wrist			
		X1	Y1	Z1	X2	Y2	Z2	X3	Y3	Z3	X4	Y4	Z4	X5	Y5	Z5	X6	Y6	Z6	X7	Y7	Z7	X8	Y8	Z8	X9	Y9	Z9	X10	Y10	Z10	X11	Y11	Z11	X12	Y12	Z12	X13	Y13	Z13	X14	Y14	Z14	X15	Y15	Z15	X16	Y16	Z16	X17	Y17	Z17	X18	Y18	Z18	X19	Y19	Z19	X20	Y20	Z20	X21	Y21	Z21	X22	Y22	Z22	X23	Y23	Z23	X24	Y24	Z24	X25	Y25	Z25	X26	Y26	Z26	X27	Y27	Z27	X28	Y28	Z28	X29	Y29	Z29	X30	Y30	Z30	X31	Y31	Z31	X32	Y32	Z32	X33	Y33	Z33	

71	57.285000000000	707.598692689638	1010.422157903637	603.952605675785	856.880942847740	1422.970779354711	377.214891164760	993.122084281703	1353.591985605306	511.028438157781	958.127802090881	1437.518948809093	695.236661592881	873.710851763855	1488.017840845179	531.665228961658	949.926693716115	929.100841208838	669.024172456227	882.660102009315	957.645579862716	403.406352979732	955.503632055319	721.379693618482	628.612043617580	872.476812031946	617.314220064944	698.169955225947	925.312593869713	561.684846249977	603.822144990568	914.349494548660	472.168538497095	608.021157239656	946.731249877889	757.644435786622	422.612541340943	874.165930663550	638.639977130388	351.439088773745	973.655948659606	569.580715473191	405.493657859717	993.386571333043	510.540502057967	402.269332652121	980.237809352965	442.650675429797	388.159676492760	920.908942736766	311.774998531704	331.740621623337	1014.369733108741	215.070114253775	381.701824368547	872.042523192790	388.785455686413	618.262298641503	792.405769296550	293.327834818539	684.544804813706	809.290203450387	197.443346958735	614.253474771652	651.397416257742	43.614713927815	590.893890535249	824.613195844423	95.742496191474	620.835628608910	736.870790053460	36.540007288286	662.512756415655	944.810128620577	41.954634268141	645.554166107457	935.945352549418	36.618555733283	411.582981039839	1013.052605622039	41.611111337023	334.422041526040	1083.544126235429	117.530566242214	359.545948184606	1217.802112651203	87.306254907969	338.054483708076	691.055229876959	1103.798745238901	320.001848198508	647.653401124022	850.617076563774	375.382052471457	1165.032583690279	1183.947045125502	809.439688956234	1393.036119337276	1276.910240848640	743.698877876419	
72	57.303214285714	708.049537380616	1008.988341757198	600.880238040136	856.575127275034	1421.591671032169	373.772282349044	992.710249046287	1352.758752126159	508.002222490322	957.032707082648	1436.706569887720	692.029424979818	873.129437088479	1487.056499738791	528.203232905170	950.520628704935	928.410150007064	667.030460783047	883.785808387445	956.099839224863	401.158221591450	955.678616762620	720.395981828068	626.886291916088	871.969940916203	616.547966006131	696.397087841163	924.640607450208	560.513728670765	602.437749509591	912.863708790147	470.739636520949	606.779304828120	947.589248151842	755.481879831668	419.934221101494	873.020881709171	636.413010151046	350.321805952757	972.798612986546	567.852623500689	403.830565884656	991.517970800700	508.553071710847	401.220441840662	978.649703540924	440.309600060215	387.328912791318	918.529999818485	309.676333196826	331.868937280285	1011.495794439906	212.828242433479	382.037298997096	869.695758838335	387.689645138690	617.060383477534	789.283286164339	293.215439593569	683.913575358428	805.097319667567	196.974326739183	613.827300986505	645.986916618151	43.832810337533	590.904475731726	819.266562532998	95.727887514137	620.792049813762	731.451037177884	36.634159742613	662.493182141349	939.393662469785	41.749022036357	645.589557070247	931.328177647778	36.459829165725	412.588436958097	1008.220691782808	40.442833755726	335.141438959946	1080.153875691894	114.542359271997	360.609600356088	1213.669519693352	81.692780358171	338.613745797448	692.564106982286	1101.555935874546	317.466009702895	650.064981298373	848.099265616854	373.080441749680	1166.382682705504	1185.074516556777	804.491560934841	1391.899667261967	1283.113404098994	737.999816328907	
73	57.321428571429	708.626960670369	1007.576573899674	597.611970362971	856.276435709045	1420.291291185930	370.177641233117	992.302006973800	1352.083592244303	504.858182183812	955.852130416774	1435.939306883505	688.766676363286	872.511288262229	1486.186394013088	524.594244204927	951.335127679429	927.812252581346	664.828379281373	885.091225661215	954.768211280342	398.727872171771	956.167500525982	719.468396029947	624.968889120608	871.725893006796	615.835142074295	694.425069158365	924.257117896649	559.373647810574	600.883910654663	911.643153393749	469.344374878904	605.369363764551	949.076190380510	753.846743401964	417.300495521458	873.027887157064	634.603499997276	349.030581108007	973.056956363176	566.644031594791	402.192420007426	990.743118913448	506.828670365260	400.091987416225	978.018162688096	438.102253143154	386.403712468880	916.665153510447	307.923342686947	331.741457292263	1008.624949949143	210.521881468879	382.230257402853	867.505484739656	386.624071900171	615.697700030305	786.311872291367	293.238478002529	683.215767389437	801.010010158254	196.594630513997	613.364302941914	640.611446942745	44.229598842697	590.943268062365	813.993335163283	95.756429356815	620.781256081469	726.066399216528	36.823653975767	662.488369422931	933.998608031133	41.494514036001	645.634548623710	925.862957413812	36.475912579794	413.441931128263	1002.528888104726	39.257067651628	335.663073104577	1076.209832028854	111.301856354262	361.484490145204	1208.863551015117	75.393070702701	338.903968824778	695.134694614938	1098.801825917190	314.345052973802	654.239733049489	844.891269053601	369.585769426679	1166.558969661864	1185.205210987162	799.910284338539	1390.146752532188	1287.031132997785	732.809360104082	
74	57.339642857143	709.328638730627	1006.315196923867	594.166678145561	855.985836110729	1419.183262097174	366.481091459094	991.916265399958	1351.646802440451	501.607371484526	954.661930743104	1435.300016322116	685.467658695316	871.883658113427	1485.493287350300	520.885903545624	952.328256434318	927.365164465042	662.377336969836	886.527763983850	953.768647177183	396.080344714049	956.806652172848	718.646485092389	622.859146239580	871.562894451634	615.275161653153	692.301117839878	923.951242816118	558.336367386730	599.206305999243	910.485702842669	468.088432567140	603.857531487731	951.094517331068	752.838947389473	414.728442893534	874.182214193115	633.310041094110	347.512073533124	974.379642372362	565.990083613568	400.571988725944	991.037325282280	505.445147124439	398.906199917129	978.343398719539	436.155740886958	385.408254102350	915.494076627906	306.596550499111	331.286087610463	1005.968710715657	208.310556031104	382.281489950192	865.339039482558	385.695283255345	614.253608087235	783.372759268156	293.458771762763	682.486027381379	796.976647480883	196.374240067464	612.898533207849	635.277803556229	44.859637682502	591.019755620114	808.805103916976	95.839302222689	620.811468620965	720.721971975843	37.136497607464	662.505917482101	928.625065323232	41.190422087399	645.688882522372	919.993769384361	36.634627689961	414.074630247573	996.466466280904	38.148456895427	335.976795057681	1072.007510785751	108.082813784452	362.164710891272	1203.762075472799	68.989926191622	339.028038389338	698.625008172524	1095.748850183241	310.652489503222	660.090054302411	841.218290102832	364.872883594073	1165.671001998675	1184.424300041919	795.715486024522	1387.987009658147	1288.724768739278	728.163262491251	
